<?xml version="1.0" standalone="no"?>
<!DOCTYPE svg PUBLIC "-//W3C//DTD SVG 20010904//EN"
 "http://www.w3.org/TR/2001/REC-SVG-20010904/DTD/svg10.dtd">
<svg version="1.0" xmlns="http://www.w3.org/2000/svg"
 width="700.000000pt" height="700.000000pt" viewBox="0 0 700.000000 700.000000"
 preserveAspectRatio="xMidYMid meet">
<metadata>
Created by potrace 1.11, written by Peter Selinger 2001-2013
</metadata>
<g transform="translate(0.000000,700.000000) scale(0.100000,-0.100000)"
fill="#000000" stroke="none">
<path d="M3792 6951 l0 -49 61 -12 c86 -16 260 -73 348 -113 339 -155 632
-464 851 -898 59 -116 71 -143 114 -244 44 -106 134 -367 169 -491 l17 -60 49
-1 49 -1 -5 96 c-4 91 -10 200 -20 387 -2 44 -7 136 -10 205 -4 69 -8 152 -10
186 -2 33 -7 121 -10 195 -3 74 -8 154 -10 179 -2 25 -7 113 -11 195 -8 201
-8 203 -19 213 -10 9 -209 68 -255 76 -14 2 -43 9 -65 15 -40 11 -310 65 -375
75 -19 3 -46 8 -60 10 -49 9 -226 35 -270 41 -211 27 -296 35 -433 41 l-106 4
1 -49z"/>
<path d="M3265 6982 c-38 -4 -210 -30 -250 -37 -64 -12 -264 -66 -331 -89
-356 -122 -631 -291 -874 -536 -368 -371 -527 -831 -476 -1380 4 -46 9 -87 11
-90 2 -3 6 -22 9 -43 11 -70 55 -212 91 -298 105 -245 233 -428 451 -645 225
-224 511 -430 934 -674 8 -5 60 -33 115 -64 55 -30 129 -71 165 -91 36 -20 79
-43 95 -51 17 -8 48 -25 70 -37 22 -13 76 -43 120 -67 173 -94 387 -221 531
-316 319 -211 536 -428 649 -649 82 -162 114 -307 113 -520 -2 -457 -172 -814
-496 -1041 -172 -120 -440 -215 -676 -238 -33 -3 -61 -8 -64 -11 -2 -2 -5 -23
-6 -47 l-1 -43 40 1 c51 2 186 13 212 18 11 3 44 7 74 11 30 3 78 11 108 16
30 6 64 12 75 14 12 1 32 5 46 9 14 3 36 8 50 10 14 2 61 14 105 26 44 12 89
24 99 26 125 25 511 187 641 269 216 136 262 171 406 315 296 294 457 645 497
1085 9 95 8 332 -1 430 -29 315 -156 640 -346 890 -130 171 -310 343 -511 487
-36 26 -69 51 -75 55 -11 10 -155 104 -225 148 -46 29 -179 107 -260 153 -25
14 -61 34 -80 45 -50 28 -87 49 -355 197 -132 73 -244 136 -250 140 -5 4 -39
23 -75 42 -345 186 -657 397 -829 562 -194 187 -328 432 -357 651 -3 28 -8 53
-11 57 -7 12 -5 236 2 313 38 391 212 662 517 805 84 39 237 83 332 95 27 3
53 8 57 11 4 2 7 23 6 47 -2 45 -5 47 -72 39z"/>
<path d="M1195 2399 c-2 -3 -2 -30 0 -60 2 -30 7 -99 10 -154 3 -55 7 -138 10
-185 5 -96 13 -239 21 -350 2 -41 6 -115 9 -165 6 -99 13 -219 20 -335 3 -41
7 -118 10 -171 3 -53 7 -128 9 -165 3 -38 8 -125 12 -194 4 -69 8 -143 9 -165
2 -22 3 -55 4 -73 1 -29 6 -35 49 -53 40 -18 142 -53 257 -89 94 -29 391 -98
545 -126 14 -2 36 -7 50 -9 14 -3 43 -7 65 -11 22 -3 47 -7 55 -9 8 -3 33 -7
55 -10 22 -3 65 -10 95 -15 30 -5 80 -12 110 -15 30 -3 66 -8 80 -10 35 -7 94
-14 170 -20 36 -2 86 -7 111 -11 45 -5 47 -5 50 23 8 54 0 71 -34 78 -59 12
-217 74 -277 110 -19 11 -46 26 -60 33 -14 7 -64 41 -111 75 -526 377 -1003
1154 -1199 1955 l-32 129 -45 -1 c-25 0 -46 -3 -48 -7z"/>
</g>
</svg>
