<?xml version="1.0" encoding="UTF-8" standalone="no"?>
<svg
   xmlns:dc="http://purl.org/dc/elements/1.1/"
   xmlns:cc="http://creativecommons.org/ns#"
   xmlns:rdf="http://www.w3.org/1999/02/22-rdf-syntax-ns#"
   xmlns:svg="http://www.w3.org/2000/svg"
   xmlns="http://www.w3.org/2000/svg"
   xmlns:sodipodi="http://sodipodi.sourceforge.net/DTD/sodipodi-0.dtd"
   xmlns:inkscape="http://www.inkscape.org/namespaces/inkscape"
   viewBox="0 0 912 160.90668"
   height="160.90668"
   width="912"
   xml:space="preserve"
   id="svg2"
   version="1.1"
   inkscape:version="0.48.4 r9939"
   sodipodi:docname="logo.svg"><sodipodi:namedview
     pagecolor="#ffffff"
     bordercolor="#666666"
     borderopacity="1"
     objecttolerance="10"
     gridtolerance="10"
     guidetolerance="10"
     inkscape:pageopacity="0"
     inkscape:pageshadow="2"
     inkscape:window-width="2560"
     inkscape:window-height="1605"
     id="namedview3311"
     showgrid="false"
     inkscape:zoom="0.62280702"
     inkscape:cx="57"
     inkscape:cy="80.453339"
     inkscape:window-x="0"
     inkscape:window-y="73"
     inkscape:window-maximized="1"
     inkscape:current-layer="g12" /><metadata
     id="metadata8"><rdf:RDF><cc:Work
         rdf:about=""><dc:format>image/svg+xml</dc:format><dc:type
           rdf:resource="http://purl.org/dc/dcmitype/StillImage" /></cc:Work></rdf:RDF></metadata><defs
     id="defs6" /><g
     transform="matrix(1.3333333,0,0,-1.3333333,0,160.90667)"
     id="g10"><g
       transform="scale(0.1)"
       id="g12"><path
         id="path14"
         style="fill:#231f20;fill-opacity:1;fill-rule:nonzero;stroke:none"
         d="M 490.367,896.469 C 460.996,1002.46 409.906,1094.41 306.48,1110.98 v 11.51 c 48.524,0 144.29,-16.61 185.153,-30.64 L 501.859,896.469 Z M 265.617,298.828 v 11.473 c 81.727,6.41 146.856,53.652 146.856,154.547 0,82.976 -66.41,126.406 -181.344,187.718 -104.707,56.184 -215.8087,123.84 -215.8087,250.282 0,134.102 120.0277,209.412 237.5237,218.352 v -11.47 c -70.239,-6.41 -108.555,-49.8 -108.555,-126.437 0,-94.484 77.899,-131.535 190.285,-194.098 C 444.395,729.164 543.988,674.266 543.988,535.07 543.988,366.52 393.305,306.488 265.617,298.828 Z M 14.0352,338.41 0,581.027 H 11.4883 C 38.3008,452.059 127.688,325.652 213.246,309.051 V 297.547 C 131.516,303.922 47.2422,323.09 14.0352,338.41" /><path
         id="path16"
         style="fill:#231f20;fill-opacity:1;fill-rule:nonzero;stroke:none"
         d="m 1047.33,325.652 c 53.63,34.453 91.93,137.914 91.93,246.434 0,132.816 -56.18,224.769 -174.944,224.769 -30.64,0 -65.128,-6.375 -89.39,-19.167 v 2.566 c 33.207,44.676 118.762,86.824 182.604,86.824 172.4,0 224.76,-125.121 224.76,-250.281 0,-150.699 -81.73,-252.844 -234.96,-301.367 z M 938.789,297.547 c -20.449,0 -65.144,7.656 -88.125,16.601 V 137.941 c 0,-77.9215 26.809,-103.4605 90.672,-112.4097 V 16.5898 H 636.137 v 8.9415 c 65.125,8.9492 77.879,29.3984 77.879,111.1167 v 561.879 c 0,44.676 -16.582,67.692 -65.125,94.481 v 7.66 l 199.226,67.691 2.547,-1.281 V 491.641 c 0,-48.524 6.395,-102.145 40.863,-137.914 28.094,-30.637 71.524,-38.297 109.823,-40.864 v -10.222 c -14.037,-2.532 -37.034,-5.094 -62.561,-5.094" /><path
         id="path18"
         style="fill:#231f20;fill-opacity:1;fill-rule:nonzero;stroke:none"
         d="m 1678.06,762.367 c 0,19.168 6.4,39.582 14.06,47.242 -1.28,1.286 -6.4,2.567 -10.23,2.567 -19.14,0 -47.24,-12.754 -68.95,-52.371 v 5.129 c 16.6,52.336 67.67,102.144 121.31,102.144 61.29,0 91.95,-34.453 91.95,-89.39 0,-51.051 -34.49,-81.727 -77.9,-81.727 -40.86,0 -70.24,26.828 -70.24,66.406 z m -97.04,-334.57 c 0,-81.727 30.64,-103.426 90.67,-109.801 V 307.77 h -305.22 v 10.226 c 65.13,8.906 77.9,29.356 77.9,111.082 v 270.731 c 0,42.148 -15.32,67.691 -63.84,93.199 v 7.66 l 197.94,67.691 2.55,-1.281 V 427.797" /><path
         id="path20"
         style="fill:#231f20;fill-opacity:1;fill-rule:nonzero;stroke:none"
         d="m 2044.54,1140.37 c 44.7,0 80.45,-37.05 80.45,-80.44 0,-43.43 -35.75,-79.203 -80.45,-79.203 -44.69,0 -80.44,35.773 -80.44,79.203 0,43.39 35.75,80.44 80.44,80.44 z m -66.4,-445.69 c 0,45.992 -19.15,74.066 -68.96,98.328 v 7.66 l 206.89,67.691 2.54,-1.281 c -1.28,-52.336 -3.83,-127.687 -3.83,-178.777 V 429.078 c 0,-79.16 21.72,-102.176 83.01,-111.082 V 307.77 h -297.55 v 10.226 c 65.12,8.906 77.9,29.356 77.9,111.082 V 694.68" /><path
         id="path22"
         style="fill:#231f20;fill-opacity:1;fill-rule:nonzero;stroke:none"
         d="m 2742.72,679.359 c 0,68.973 -25.54,105.989 -99.61,105.989 -31.92,0 -63.84,-7.66 -90.67,-17.848 v 3.813 c 39.58,51.089 113.65,95.765 180.06,95.765 105.99,0 146.85,-65.129 146.85,-163.457 V 429.078 c 0,-81.726 14.06,-102.176 77.9,-111.082 V 307.77 h -291.16 v 10.226 c 60.03,7.656 76.63,31.922 76.63,108.52 z M 2516.69,426.516 c 0,-76.598 16.6,-100.864 76.61,-108.52 V 307.77 h -291.16 v 10.226 c 65.13,8.906 77.9,29.356 77.9,111.082 v 270.731 c 0,42.148 -14.04,66.41 -63.84,93.199 v 7.66 l 197.94,67.691 2.55,-1.281 V 426.516" /><path
         id="path24"
         style="fill:#231f20;fill-opacity:1;fill-rule:nonzero;stroke:none"
         d="m 4144.7,676.828 c 0,70.223 -25.55,108.52 -99.6,108.52 -31.94,0 -65.12,-7.66 -90.67,-17.848 v 3.813 c 39.58,51.089 113.65,95.765 180.06,95.765 104.71,0 146.85,-67.656 146.85,-164.738 V 429.078 c 0,-81.726 14.04,-102.176 77.9,-111.082 V 307.77 h -291.16 v 10.226 c 60.01,7.656 76.62,31.922 76.62,108.52 z M 3918.66,426.516 c 0,-76.598 16.6,-100.864 76.64,-108.52 V 307.77 h -291.17 v 10.226 c 63.85,8.906 77.9,29.356 77.9,111.082 v 609.112 c 0,44.72 -14.05,65.13 -65.12,94.52 v 6.38 l 203.03,67.69 2.57,-1.28 c -1.28,-52.37 -3.85,-127.69 -3.85,-178.78 V 426.516" /><path
         id="path26"
         style="fill:#231f20;fill-opacity:1;fill-rule:nonzero;stroke:none"
         d="m 4785.43,842.816 c -16.6,10.223 -33.2,12.789 -49.81,14.071 v 10.191 c 159.63,-3.812 289.88,-111.086 289.88,-282.203 0,-173.68 -139.19,-269.445 -265.62,-286.047 v 10.223 c 22.98,2.531 53.64,24.262 72.79,52.336 26.83,37.054 45.98,111.121 45.98,226.054 0,145.571 -33.21,223.454 -93.22,255.375 z M 4669.21,324.371 c 16.61,-8.941 33.21,-15.32 49.81,-16.601 v -10.223 c -159.63,3.844 -291.16,111.082 -291.16,280.953 0,174.926 141.74,274.539 266.9,287.293 v -8.906 c -28.09,-3.848 -53.64,-23.012 -72.79,-49.805 C 4595.15,768.746 4576,693.43 4576,578.5 c 0,-146.855 33.2,-222.207 93.21,-254.129" /><path
         id="path28"
         style="fill:#231f20;fill-opacity:1;fill-rule:nonzero;stroke:none"
         d="m 5653.32,431.645 c 0,-58.75 7.66,-75.352 85.56,-88.141 v -8.941 l -218.38,-34.454 -3.83,2.532 v 417.582 c 0,79.199 -11.49,99.613 -85.56,109.84 v 10.222 l 219.64,21.695 2.57,-1.281 z m -489.1,288.578 c 0,79.199 -6.38,99.613 -80.45,109.84 v 10.222 l 214.54,21.695 2.55,-1.281 V 501.863 c 0,-88.101 22.98,-120.023 98.33,-120.023 37.04,0 61.3,7.656 86.84,22.976 v -5.093 c -31.94,-53.653 -85.55,-99.614 -168.57,-99.614 -107.27,0 -153.24,62.563 -153.24,167.27 v 252.844" /><path
         id="path30"
         style="fill:#231f20;fill-opacity:1;fill-rule:nonzero;stroke:none"
         d="m 6051.4,867.078 c 58.75,0 123.87,-15.32 144.3,-25.547 l 7.66,-146.851 h -8.94 c -25.54,80.48 -82.99,153.265 -143.02,163.457 z m -44.7,-10.191 c -24.26,-3.848 -57.46,-34.485 -57.46,-79.199 0,-67.657 56.18,-90.668 127.7,-126.403 81.73,-43.43 155.8,-88.105 155.8,-172.398 0,-117.5 -90.67,-176.246 -196.66,-181.34 v 7.656 c 48.52,6.379 86.84,38.301 86.84,99.613 0,62.563 -62.58,88.106 -135.37,125.161 -67.69,35.734 -144.3,76.597 -144.3,173.644 0,88.141 67.69,150.703 163.45,162.172 z m -16.6,-559.34 c -47.24,1.281 -121.31,17.883 -150.68,30.637 l -8.95,168.586 h 8.95 c 21.71,-79.2 85.55,-172.399 150.68,-191.567 v -7.656" /><path
         id="path32"
         style="fill:#231f20;fill-opacity:1;fill-rule:nonzero;stroke:none"
         d="m 6516.93,670.418 v 8.941 l 171.12,15.321 c -3.83,80.48 -23,155.797 -77.9,162.207 v 10.191 c 127.69,-3.812 209.42,-97.051 209.42,-196.66 z m 57.45,183.906 c -62.56,-14.039 -102.16,-95.765 -102.16,-217.113 0,-136.629 70.24,-236.242 190.29,-236.242 90.67,0 141.74,37.054 171.11,77.918 l 6.38,-5.129 c -19.15,-59.996 -94.48,-176.211 -242.62,-176.211 -167.29,0 -260.5,128.969 -260.5,277.105 0,160.891 113.65,274.575 237.5,289.895 v -10.223" /><path
         id="path34"
         style="fill:#231f20;fill-opacity:1;fill-rule:nonzero;stroke:none"
         d="m 3606.79,947.523 c -44.71,0 -80.45,-37.039 -80.45,-80.445 0,-43.437 35.74,-79.215 80.45,-79.215 44.69,0 80.45,35.778 80.45,79.215 0,43.406 -35.76,80.445 -80.45,80.445" /><path
         id="path36"
         style="fill:#231f20;fill-opacity:1;fill-rule:nonzero;stroke:none"
         d="m 3288.81,489.113 v 8.899 c -57.47,15.355 -97.04,72.816 -97.04,187.777 1.28,88.078 20.43,150.641 77.9,171.094 v 8.894 c -94.51,-7.629 -205.6,-70.191 -205.6,-195.375 0,-117.461 120.04,-177.488 224.74,-181.289" /><path
         id="path38"
         style="fill:#231f20;fill-opacity:1;fill-rule:nonzero;stroke:none"
         d="m 3406.3,667.871 c -1.27,-88.113 -20.44,-148.109 -77.9,-169.859 v -8.899 c 94.5,7.664 205.6,68.926 205.6,195.379 0,117.457 -118.76,178.785 -224.76,182.586 v -8.93 c 57.47,-15.324 97.06,-74.085 97.06,-190.277" /><path
         id="path40"
         style="fill:#231f20;fill-opacity:1;fill-rule:nonzero;stroke:none"
         d="m 3431.83,407.367 c -79.18,0 -187.71,-10.195 -224.75,-10.195 -31.92,0 -63.83,8.93 -63.83,44.676 0,15.324 6.36,33.179 20.42,51.066 l -5.11,3.863 c -26.84,-20.453 -62.58,-53.664 -84.27,-84.312 -12.77,-19.152 -17.89,-39.574 -17.89,-53.602 0,-77.914 67.68,-108.562 123.87,-108.562 49.79,0 213.25,10.226 252.84,10.226 79.17,0 95.78,-29.379 95.78,-68.988 0,-48.5 -43.42,-89.379 -71.51,-107.2577 v -7.6719 c 43.41,21.7226 149.41,94.4806 149.41,190.3126 0,103.402 -60.02,140.445 -174.96,140.445" /><path
         id="path42"
         style="fill:#231f20;fill-opacity:1;fill-rule:nonzero;stroke:none"
         d="m 3126.64,143.039 c 0,43.43 24.27,75.348 44.69,84.277 l -3.83,6.395 C 3121.53,223.484 3024.47,163.461 3024.47,105.961 3024.47,44.6992 3089.6,0 3201.98,0 c 104.71,0 192.83,43.4297 218.36,60.0195 v 7.6602 c -35.74,-17.8789 -105.98,-34.5 -167.28,-34.5 -98.33,0 -126.42,44.7305 -126.42,109.8593" /></g></g></svg>